<?xml version="1.0" encoding="UTF-8"?>
<svg xmlns="http://www.w3.org/2000/svg" width="300px" height="62px" viewBox="0 0 546 113" fill="none">
  <g clip-path="url(#clip0_572_861)">
    <path d="M191.304 12.2612V4.64234C189.77 2.04809 186.072 0 180.977 0C170.513 0 163.392 9.39391 163.392 21.8463C163.392 32.0868 169.445 41.2895 179.525 41.2895C183.744 41.2895 187.496 40.1972 191.003 38.231L189.414 33.3975C186.291 35.2272 183.305 36.0737 180.292 36.0737C174.759 36.0737 170.349 29.7929 170.349 20.6448C170.349 10.9778 175.197 4.88811 180.813 4.88811C183.168 4.88811 185.332 5.8985 185.716 7.37313L187.058 12.2612H191.331H191.304ZM224.338 40.798V20.4809C224.338 16.5486 223.051 12.9712 216.888 12.9712C212.752 12.9712 209.163 16.0297 206.999 18.7605V0H196.097V2.97656L200.425 3.55002V40.7707H206.999V28.646C206.999 23.1844 212.998 17.204 215.847 17.204C217.49 17.204 217.764 18.7332 217.764 21.0817V40.7707H224.338V40.798ZM263.618 40.798V37.876L259.92 37.2479V13.4628H253.62C251.84 13.1351 249.539 12.9439 247.512 12.9439C239.979 12.9439 234.254 18.5967 234.254 27.226C234.254 35.8552 238.335 41.2622 245.786 41.2622C248.963 41.2622 251.511 39.9241 253.374 37.8214V40.7434H263.645L263.618 40.798ZM253.346 26.7617C253.346 32.6602 249.457 37.0022 245.759 37.0022C243.403 37.0022 241.239 34.2168 241.239 27.2806C241.239 20.7267 244.115 17.2313 247.484 17.2313C249.977 17.2313 252.004 17.6136 253.346 18.0505V26.7617ZM295.886 40.798V20.4809C295.886 16.5486 294.598 12.9712 288.435 12.9712C284.299 12.9712 280.711 16.0297 278.547 18.7605V13.4901H267.645V16.412L271.973 17.0401V40.798H278.547V28.6733C278.547 23.2117 284.545 17.2313 287.394 17.2313C289.038 17.2313 289.312 18.8151 289.312 21.1636V40.798H295.886ZM333.138 36.1556L331.029 32.0868C327.468 35.1999 324.647 36.6745 320.182 36.6745C317.635 36.6745 313.361 33.9437 313.361 27.2806C313.361 20.6174 316.922 17.2313 320.62 17.2313H321.689C323.907 17.2313 326.099 18.187 326.4 19.2521L327.55 23.5121H331.577V18.4328C331.577 15.0739 327.112 12.9712 321.387 12.9712H320.483C312.649 12.9712 306.322 18.5694 306.322 27.2533C306.322 35.9372 312.622 41.2895 319.908 41.2895C325.633 41.2895 329.66 39.3233 333.111 36.1556H333.138ZM368.665 36.2922L366.693 32.1687C363.05 35.2818 360.201 36.6745 355.737 36.6745C353.189 36.6745 348.916 33.9437 348.916 27.2806V26.9529L367.981 25.6148C367.981 17.477 363.132 12.9712 355.737 12.9712C348.341 12.9712 341.904 18.5694 341.904 27.2533C341.904 35.9372 348.396 41.2895 355.682 41.2895C361.407 41.2895 365.242 39.4599 368.693 36.2649L368.665 36.2922ZM361.078 21.8736L349.354 22.6382C350.45 18.9517 353.107 17.2313 355.737 17.2313C358.037 17.2313 360.448 19.0609 361.078 21.8736ZM190.427 78.0186C190.427 67.7235 184.949 57.8654 173.91 57.8654H164.104V98.1445H173.91C184.949 98.1445 190.427 88.2864 190.427 77.9913V78.0186ZM183.47 78.0186C183.47 87.1121 178.95 93.2564 173.91 93.2564H170.65V62.7535H173.91C178.95 62.7535 183.47 68.9251 183.47 77.9913V78.0186ZM217.271 60.5416C217.271 58.3296 215.436 56.2815 212.752 56.2815C210.067 56.2815 208.287 58.3023 208.287 60.5416C208.287 62.7808 210.067 64.8562 212.752 64.8562C215.436 64.8562 217.271 62.7535 217.271 60.5416ZM226.201 98.1445V93.8299H216.312V70.8366H200.946V74.3867L209.738 75.0147V93.8299H198.453V98.1445H226.174H226.201ZM259.948 100.247V70.8366H253.647C251.867 70.5089 249.566 70.3178 247.539 70.3178C240.006 70.3178 234.281 75.9705 234.281 84.5998C234.281 93.2291 238.363 98.636 245.813 98.636C248.991 98.636 251.538 97.298 253.401 95.1953V100.22C253.401 107.02 251.429 108.412 248.991 108.412C244.526 108.412 242.033 107.129 238.281 103.77L236.308 108.085C239.76 111.252 243.266 112.973 248.991 112.973C256.387 112.973 259.948 109.04 259.948 100.193V100.247ZM253.374 84.1083C253.374 90.0068 249.484 94.3487 245.786 94.3487C243.43 94.3487 241.266 91.5633 241.266 84.6271C241.266 78.0732 244.143 74.5778 247.512 74.5778C250.004 74.5778 252.031 74.9601 253.374 75.397V84.1083ZM288.599 60.5416C288.599 58.3296 286.737 56.2815 284.08 56.2815C281.423 56.2815 279.615 58.3023 279.615 60.5416C279.615 62.7808 281.395 64.8562 284.08 64.8562C286.764 64.8562 288.599 62.7535 288.599 60.5416ZM297.529 98.1445V93.8299H287.641V70.8366H272.274V74.3867L281.067 75.0147V93.8299H269.781V98.1445H297.502H297.529ZM331.988 91.1537V85.8833H328.043L327.14 89.8975C326.619 92.1914 324.839 94.3487 322.428 94.3487C319.881 94.3487 317.909 94.021 317.909 87.3579V75.0967H330.454V70.8366H317.909V60.4869H313.307L311.444 70.8366H304.569V75.0967H311.335V87.0302C311.335 95.9872 314.978 98.6634 322.291 98.6634C329.167 98.6634 331.988 94.5399 331.988 91.1537ZM370.583 98.1445V95.2226L366.885 94.5945V70.8366H360.585C358.804 70.5089 356.504 70.3178 354.477 70.3178C346.944 70.3178 341.219 75.9705 341.219 84.5998C341.219 93.2291 345.3 98.636 352.751 98.636C355.928 98.636 358.476 97.298 360.338 95.1953V98.1172H370.61L370.583 98.1445ZM360.311 84.1083C360.311 90.0068 356.421 94.3487 352.723 94.3487C350.368 94.3487 348.204 91.5633 348.204 84.6271C348.204 78.0732 351.08 74.5778 354.449 74.5778C356.942 74.5778 358.969 74.9601 360.311 75.397V84.1083ZM404.521 98.1445V93.8299H394.441V57.3738H379.074V61.0058L387.867 61.6339V93.8572H376.91V98.1718H404.494L404.521 98.1445ZM431.256 60.5416C431.256 58.3296 429.393 56.2815 426.736 56.2815C424.079 56.2815 422.271 58.3023 422.271 60.5416C422.271 62.7808 424.052 64.8562 426.736 64.8562C429.42 64.8562 431.256 62.7535 431.256 60.5416ZM440.185 98.1445V93.8299H430.297V70.8366H414.93V74.3867L423.723 75.0147V93.8299H412.438V98.1445H440.158H440.185ZM474.644 91.1537V85.8833H470.7L469.796 89.8975C469.275 92.1914 467.495 94.3487 465.084 94.3487C462.537 94.3487 460.565 94.021 460.565 87.3579V75.0967H473.11V70.8366H460.565V60.4869H455.99L454.128 70.8366H447.252V75.0967H454.018V87.0302C454.018 95.9872 457.661 98.6634 464.975 98.6634C471.85 98.6634 474.672 94.5399 474.672 91.1537H474.644ZM513.239 98.1445V95.2226L509.541 94.5945V70.8366H503.241C501.461 70.5089 499.16 70.3178 497.133 70.3178C489.628 70.3178 483.875 75.9705 483.875 84.5998C483.875 93.2291 487.957 98.636 495.407 98.636C498.585 98.636 501.132 97.298 502.995 95.1953V98.1172H513.267L513.239 98.1445ZM502.967 84.1083C502.967 90.0068 499.078 94.3487 495.38 94.3487C493.024 94.3487 490.86 91.5633 490.86 84.6271C490.86 78.0732 493.736 74.5778 497.105 74.5778C499.598 74.5778 501.625 74.9601 502.967 75.397V84.1083ZM507.925 61.9889C507.925 60.1593 506.446 58.3569 504.09 58.3569C501.735 58.3569 500.201 60.1319 500.201 61.9889C500.201 63.8458 501.735 65.6754 504.09 65.6754C506.446 65.6754 507.925 63.8458 507.925 61.9889ZM495.572 61.9889C495.572 60.1593 494.092 58.3569 491.737 58.3569C489.381 58.3569 487.847 60.1319 487.847 61.9889C487.847 63.8458 489.381 65.6754 491.737 65.6754C494.092 65.6754 495.572 63.8458 495.572 61.9889ZM545.945 91.1537V85.8833H542.001L541.124 89.8975C540.604 92.1914 538.823 94.3487 536.413 94.3487C533.865 94.3487 531.893 94.021 531.893 87.3579V75.0967H544.438V70.8366H531.893V60.4869H527.319L525.456 70.8366H518.581V75.0967H525.346V87.0302C525.346 95.9872 528.989 98.6634 536.303 98.6634C543.178 98.6634 546 94.5399 546 91.1537H545.945Z" fill="black"></path>
    <path d="M35.6091 73.6493H-0.000244141V79.1109H35.6091V73.6493Z" fill="#F91414"></path>
    <path d="M68.4787 46.3414H32.8694V51.803H68.4787V46.3414Z" fill="#60E589"></path>
    <path d="M101.35 19.0334H65.7402V24.495H101.35V19.0334Z" fill="#0B9CED"></path>
  </g>
  <defs>
    <clipPath id="clip0_572_861">
      <rect width="546" height="113" fill="white"></rect>
    </clipPath>
  </defs>
</svg>
